<?xml version="1.0" encoding="iso-8859-1"?>
<!-- Generator: Adobe Illustrator 19.0.0, SVG Export Plug-In . SVG Version: 6.00 Build 0)  -->
<svg version="1.1" id="Layer_1" xmlns="http://www.w3.org/2000/svg" xmlns:xlink="http://www.w3.org/1999/xlink" x="0px" y="0px"
	 viewBox="0 0 512.034 512.034" style="enable-background:new 0 0 512.034 512.034;" xml:space="preserve">
<g transform="translate(0 -1)">
	<g>
		<path d="M478.068,40.846C440.874,3.651,380.138,3.651,342.922,40.84l-10.956,10.53c-18.706-16.725-39.111-31.599-60.96-44.333
			C252.85-7.272,224.924,5.289,225.17,29.648l0.704,62.255c0.082,18.895-7.193,37.029-20.184,50.166L38.374,311.733
			c-8.232,8.348-8.185,21.774,0.105,30.065l1.563,1.563l-12.351,13.444c-31.132,38.884-28.297,93.929,6.108,128.334
			c37.195,37.195,97.956,37.195,135.151,0l43.995-43.995c23.982,11.997,54.019,8.033,73.96-11.933l75.425-75.425
			c19.959-19.933,23.922-49.97,11.923-73.952l103.815-103.815C515.284,138.802,515.284,78.062,478.068,40.846z M236.04,172.059
			c20.996-21.238,32.632-50.248,32.5-80.49l-0.407-35.979c35.157,23.745,65.435,54.029,89.186,89.202l-35.831-0.393
			c-30.637-0.134-59.817,11.48-80.792,32.638L88.445,331.424l-0.644-0.644c-0.959-1.477-2.093-2.87-3.45-4.116
			c-0.138-0.127-0.287-0.232-0.427-0.354L236.04,172.059z M332.17,323.605l-75.444,75.444c-8.254,8.265-21.896,8.265-30.161,0
			s-8.265-21.907-0.01-30.151l75.444-75.444c8.254-8.265,21.896-8.265,30.161,0S340.425,315.361,332.17,323.605z M447.898,145.848
			L343.484,250.262c-23.578-10.636-52.356-6.301-71.664,13.032l-75.425,75.425c-19.326,19.301-23.659,48.078-13.022,71.656
			l-44.593,44.593c-20.533,20.533-54.279,20.533-74.811,0c-18.984-18.984-20.559-49.565-3.901-70.415l10.15-11.018l3.248,3.248
			c8.372,8.372,21.961,8.325,30.275-0.105l167.296-169.643c12.723-12.834,30.868-20.055,50.126-19.972l62.088,0.682
			c24.368,0.246,36.944-27.656,22.629-45.815c-12.596-21.613-27.28-41.813-43.776-60.352l10.683-10.269
			c20.85-20.828,54.578-20.828,75.112-0.295C468.452,91.57,468.452,125.294,447.898,145.848z"/>
	</g>
</g>
<g>
</g>
<g>
</g>
<g>
</g>
<g>
</g>
<g>
</g>
<g>
</g>
<g>
</g>
<g>
</g>
<g>
</g>
<g>
</g>
<g>
</g>
<g>
</g>
<g>
</g>
<g>
</g>
<g>
</g>
</svg>
